<?xml version="1.0" encoding="utf-8"?>
<svg xmlns="http://www.w3.org/2000/svg" fill="none" height="26" viewBox="0 0 192 26" width="192">
<g clip-path="url(#clip0_547_16239)">
<path d="M4.60893 18.3731C8.25614 19.1512 17.2039 18.908 17.4471 13.0239C17.4471 10.641 14.3834 8.45269 11.5143 7.82051C7.96436 7.04244 5.67877 7.04244 2.08019 7.82051C-0.108135 8.69584 -0.83757 6.50751 1.20487 5.77807C5.04659 4.36782 19.9272 4.07604 20.6566 13.0239C20.0245 21.8744 7.0404 21.2422 4.074 20.6587C2.95552 20.4155 2.03157 19.8806 2.03157 18.4217V11.0301C2.03157 9.27939 4.60893 9.27939 4.60893 11.0301V18.3731ZM32.5709 8.01503C29.6531 8.01503 24.7901 16.8656 23.3313 20.0265C22.4559 21.923 19.7327 20.5614 20.608 18.6649C22.1642 15.2608 27.9511 4.95137 32.5222 5.04863C37.0934 4.95137 42.8803 15.2608 44.4364 18.6649C45.3118 20.5614 42.5885 21.923 41.7132 20.0265C40.3029 16.817 35.4886 8.01503 32.5709 8.01503ZM52.898 17.9841C55.8157 17.9841 60.6787 9.1335 62.1376 5.97259C63.0129 4.07604 65.6875 5.43766 64.8608 7.33421C63.3047 10.7383 57.5178 21.0477 52.9466 20.9505C48.3754 21.0477 42.5885 10.7383 41.0324 7.33421C40.157 5.43766 42.8803 4.07604 43.7556 5.97259C45.1659 9.1335 49.9802 17.9841 52.898 17.9841ZM69.7238 6.55614V19.4429C69.7238 21.3881 66.806 21.2909 66.806 19.3457V6.50751C66.806 4.5137 69.7238 4.51371 69.7238 6.55614ZM83.6318 17.9841C86.5495 17.9841 91.4125 9.1335 92.8714 5.97259C93.7467 4.07604 96.47 5.43766 95.5946 7.33421C94.0385 10.7383 88.2516 21.0477 83.6804 20.9505C79.1092 21.0477 73.3223 10.7383 71.7662 7.33421C70.8909 5.43766 73.6141 4.07604 74.4894 5.97259C75.8997 9.1335 80.7626 17.9841 83.6318 17.9841ZM106.05 14.3369C106.925 16.1361 109.357 17.595 111.691 18.13C115.241 18.908 117.527 18.908 121.125 18.13C123.265 17.4491 124.043 19.4916 122 20.1724C118.013 21.534 103.375 22.0203 102.5 13.0239C102.986 4.46508 114.657 4.70822 119.131 5.29178C121.32 5.58355 120.882 7.86914 118.596 7.43147C115.581 7.04244 107.46 6.55614 105.904 11.954H114.22C115.533 11.954 115.533 14.3369 114.22 14.3369H106.05ZM152.442 18.3731C156.09 19.1512 165.037 18.908 165.281 13.0239C165.281 10.641 162.217 8.45269 159.348 7.82051C155.798 7.04244 153.512 7.04244 149.914 7.82051C147.725 8.69584 146.996 6.50751 149.038 5.77807C152.88 4.36782 167.761 4.07604 168.49 13.0239C167.858 21.8744 154.825 21.2422 151.908 20.6587C150.74 20.4155 149.865 19.8806 149.865 18.4217V11.0301C149.865 9.27939 152.442 9.27939 152.442 11.0301V18.3731ZM180.453 8.01503C177.535 8.01503 172.672 16.8656 171.213 20.0265C170.338 21.923 167.663 20.5614 168.49 18.6649C170.046 15.2608 175.833 4.95137 180.404 5.04863C184.976 4.95137 190.762 15.2608 192.319 18.6649C193.194 20.5614 190.471 21.923 189.595 20.0265C188.185 16.817 183.371 8.01503 180.453 8.01503ZM100.458 6.55614V19.4429C100.458 21.3881 97.5398 21.2909 97.5398 19.3457V6.50751C97.5398 4.5137 100.458 4.51371 100.458 6.55614ZM135.519 15.6012C133.72 12.2944 131.726 7.91777 130.365 7.82051C127.009 7.82051 128.517 14.4341 128.468 19.6375C128.419 21.4854 125.55 21.4854 125.55 19.4429C125.55 12.8293 124.14 5 130.413 5C132.261 5 134.012 7.77188 135.568 10.3492C137.367 13.656 139.507 18.0327 140.869 18.13C144.224 18.13 142.619 11.6136 142.668 6.45888C142.717 4.65959 145.586 4.65959 145.586 6.6534C145.586 13.267 147.093 20.9991 140.82 20.9991C139.021 20.9991 137.124 18.2272 135.519 15.6012Z" fill="#A4ABB6"/>
</g>
<defs>
<clipPath id="clip0_547_16239">
<rect fill="white" height="26" width="192"/>
</clipPath>
</defs>
</svg>