<?xml version="1.0" encoding="utf-8"?>
<svg xmlns="http://www.w3.org/2000/svg" fill="none" height="26" viewBox="0 0 107 26" width="107">
<path d="M44.6725 6.71875C42.7485 6.71875 40.5597 7.61102 39.2216 9.39685L39.2229 9.39366L39.2216 9.39494L39.2229 6.99891H34.6323V23.7155H39.2216V14.2043C39.2216 12.492 40.5488 10.6723 43.0063 10.6723C44.906 10.6723 46.8709 11.9931 46.8709 14.2043V23.7155H51.4615V13.3529C51.4615 9.50879 48.7111 6.71875 44.6725 6.71875Z" fill="#A4ABB6"/>
<path d="M84.0861 6.99902L79.9362 18.3862L75.7863 6.99902H70.5433L77.4212 23.7092H82.4506L89.3291 6.99902H84.0861Z" fill="#A4ABB6"/>
<path d="M20.9287 12.0356C21.7103 10.986 22.9556 10.37 24.4594 10.37C26.1141 10.37 27.369 11.3147 28.017 12.7085L19.998 16.0358C19.7786 14.3287 20.2155 12.9931 20.9287 12.0356ZM29.7478 18.5758C27.8155 20.0053 26.7115 20.3469 24.95 20.3469C23.3643 20.3469 22.1235 19.855 21.2478 18.9915L32.983 14.1227C32.7272 12.3087 32.0389 10.6886 30.9791 9.456C29.4369 7.66506 27.1547 6.71777 24.3769 6.71777C19.329 6.71777 15.5232 10.4417 15.5232 15.3591C15.5232 20.4044 19.3379 23.9998 24.8822 23.9998C27.9882 23.9998 31.1646 22.5274 32.6498 20.8074L29.7478 18.5758Z" fill="#A4ABB6"/>
<path d="M15.0855 19.5007H4.65262V2H0V23.7152H15.0855V19.5007Z" fill="#A4ABB6"/>
<path d="M97.5713 10.6515C95.0076 10.6515 93.147 12.594 93.147 15.3578C93.147 17.9963 95.1183 20.0642 97.6333 20.0642C100.197 20.0642 102.058 18.0679 102.058 15.3578C102.058 12.7187 100.087 10.6515 97.5713 10.6515ZM97.5713 23.9972C92.5508 23.9972 88.6178 20.2573 88.6178 15.3578C88.6178 10.5133 92.5783 6.71777 97.6333 6.71777C102.653 6.71777 106.585 10.4577 106.585 15.3578C106.585 20.2017 102.626 23.9972 97.5713 23.9972Z" fill="#A4ABB6"/>
<path d="M62.2303 10.6515C59.6667 10.6515 57.806 12.594 57.806 15.3578C57.806 17.9963 59.7773 20.0642 62.2923 20.0642C64.8559 20.0642 66.7172 18.0679 66.7172 15.3578C66.7172 12.7187 64.7459 10.6515 62.2303 10.6515ZM62.2303 23.9972C57.2099 23.9972 53.2775 20.2573 53.2775 15.3578C53.2775 10.5133 57.2374 6.71777 62.2923 6.71777C67.3121 6.71777 71.2451 10.4577 71.2451 15.3578C71.2451 20.2017 67.2852 23.9972 62.2303 23.9972Z" fill="#A4ABB6"/>
</svg>