<svg width="1em" height="1em" fill="#C4C8CE" viewBox="0 0 24 24" xmlns="http://www.w3.org/2000/svg"><path fill="#0AE98A" fill-rule="evenodd" d="M7 3.75A3.25 3.25 0 0 0 3.75 7v10A3.25 3.25 0 0 0 7 20.25h10A3.25 3.25 0 0 0 20.25 17V7A3.25 3.25 0 0 0 17 3.75zM2.25 7A4.75 4.75 0 0 1 7 2.25h10A4.75 4.75 0 0 1 21.75 7v10A4.75 4.75 0 0 1 17 21.75H7A4.75 4.75 0 0 1 2.25 17z" clip-rule="evenodd"></path><path fill="#0AE98A" fill-rule="evenodd" d="M21.61 8.564a.75.75 0 0 1-.174 1.046l-7 5a.75.75 0 0 1-.966-.08l-3.551-3.55-6.483 4.63a.75.75 0 1 1-.872-1.22l7-5a.75.75 0 0 1 .966.08l3.551 3.55 6.483-4.63a.75.75 0 0 1 1.046.174" clip-rule="evenodd"></path></svg>