<svg width="1em" height="1em" fill="none" viewBox="0 0 24 24" xmlns="http://www.w3.org/2000/svg"><g fill="#fff" fill-rule="evenodd" clip-rule="evenodd"><path d="M12 3.75A8.25 8.25 0 0 0 3.75 12 8.25 8.25 0 0 0 12 20.25 8.25 8.25 0 0 0 20.25 12 8.25 8.25 0 0 0 12 3.75m0-1.5A9.75 9.75 0 0 0 2.25 12 9.75 9.75 0 0 0 12 21.75 9.75 9.75 0 0 0 21.75 12 9.75 9.75 0 0 0 12 2.25"></path><path d="M12 8.25a.75.75 0 0 1 .75.75v6a.75.75 0 0 1-1.5 0V9a.75.75 0 0 1 .75-.75"></path><path d="M8.97 11.97a.75.75 0 0 1 1.06 0L12 13.94l1.97-1.97a.75.75 0 1 1 1.06 1.06l-2.5 2.5a.75.75 0 0 1-1.06 0l-2.5-2.5a.75.75 0 0 1 0-1.06"></path></g></svg>