<svg width="1em" height="1em" fill="none" viewBox="0 0 40 40" xmlns="http://www.w3.org/2000/svg">
    <path fill="#0AE98A" fill-rule="evenodd" d="M30 27.949a2.692 2.692 0 1 0 0 5.384 2.692 2.692 0 0 0 0-5.384m-5 2.692a5 5 0 1 1 10 0 5 5 0 0 1-10 0m-13.461-25a4.23 4.23 0 0 0-4.231 4.23c0 .884.514 1.949 1.378 3.057.83 1.064 1.852 2.006 2.597 2.63a.43.43 0 0 0 .51 0c.745-.624 1.768-1.565 2.598-2.63.864-1.108 1.378-2.173 1.378-3.056a4.23 4.23 0 0 0-4.23-4.23M5 9.871a6.538 6.538 0 0 1 13.077 0c0 1.674-.914 3.254-1.866 4.476-.98 1.256-2.15 2.324-2.958 2.997l-.029.024a2.74 2.74 0 0 1-3.403-.025c-.806-.673-1.977-1.74-2.956-2.997C5.913 13.124 5 11.545 5 9.872m15.385 2.309c0-.638.516-1.154 1.153-1.154h3.077a5.77 5.77 0 0 1 0 11.538h-9.23a3.462 3.462 0 0 0 0 6.923H20a1.154 1.154 0 1 1 0 2.308h-4.615a5.77 5.77 0 0 1 0-11.538h9.23a3.462 3.462 0 0 0 0-6.924H21.54a1.154 1.154 0 0 1-1.154-1.153" clip-rule="evenodd">
    </path>
    <path fill="#0AE98A" d="M11.539 11.41a1.538 1.538 0 1 0 0-3.077 1.538 1.538 0 0 0 0 3.077">
    </path>
</svg>