<svg width="1em" height="1em" fill="none" viewBox="0 0 26 26" xmlns="http://www.w3.org/2000/svg"><path fill="#fff" fill-rule="evenodd" d="M11.68 10.895v4.209L15.237 13zm.7-1.184a1.375 1.375 0 0 0-2.076 1.184v4.209a1.375 1.375 0 0 0 2.075 1.184l3.558-2.105c.9-.532.9-1.835 0-2.367z" clip-rule="evenodd"></path><path fill="#fff" fill-rule="evenodd" d="M7.5 5.438c-1.14 0-2.062.923-2.062 2.062v11c0 1.14.923 2.063 2.062 2.063h11c1.14 0 2.063-.924 2.063-2.063v-11c0-1.14-.924-2.062-2.063-2.062zM4.063 7.5A3.437 3.437 0 0 1 7.5 4.063h11A3.437 3.437 0 0 1 21.938 7.5v11a3.437 3.437 0 0 1-3.438 3.438h-11A3.437 3.437 0 0 1 4.063 18.5z" clip-rule="evenodd"></path></svg>