<svg width="1em" height="1em" fill="none" viewBox="0 0 24 24" xmlns="http://www.w3.org/2000/svg"><path fill="#C4C8CE" fill-rule="evenodd" d="M17 9.5a.705.705 0 0 1 0 .998l-4 4.001a.705.705 0 0 1-1.013-.016L10 12.363l-1.987 2.12a.705.705 0 0 1-1.028-.964l2.5-2.668a.705.705 0 0 1 1.03 0l2.003 2.136 3.486-3.486a.705.705 0 0 1 .997 0" clip-rule="evenodd"></path><path fill="#C4C8CE" fill-rule="evenodd" d="M2.246 7.996a5.75 5.75 0 0 1 5.75-5.75h8.008a5.75 5.75 0 0 1 5.75 5.75v8.008a5.75 5.75 0 0 1-5.75 5.75H7.996a5.75 5.75 0 0 1-5.75-5.75zm5.75-4.25a4.25 4.25 0 0 0-4.25 4.25v8.008a4.25 4.25 0 0 0 4.25 4.25h8.008a4.25 4.25 0 0 0 4.25-4.25V7.996a4.25 4.25 0 0 0-4.25-4.25z" clip-rule="evenodd"></path></svg>