<svg width="1em" height="1em" fill="none" viewBox="0 0 40 40" xmlns="http://www.w3.org/2000/svg"><path fill="#0AE98A" fill-rule="evenodd" d="M14.58 4.16a1.25 1.25 0 1 0-2.5 0v1.251H9.996a6.25 6.25 0 0 0-6.252 6.252v18.341a6.25 6.25 0 0 0 6.252 6.252h20.008a6.25 6.25 0 0 0 6.252-6.252v-18.34a6.25 6.25 0 0 0-6.252-6.253H27.92v-1.25a1.25 1.25 0 0 0-2.5 0v1.25H14.58zm-2.5 3.751v1.251a1.25 1.25 0 0 0 2.5 0v-1.25h10.84v1.25a1.25 1.25 0 1 0 2.5 0v-1.25h2.084a3.75 3.75 0 0 1 3.752 3.751v2.085H6.244v-2.085a3.75 3.75 0 0 1 3.752-3.752zm-5.836 8.337v13.756a3.75 3.75 0 0 0 3.752 3.752h20.008a3.75 3.75 0 0 0 3.752-3.752V16.248zM20 20.418a1.25 1.25 0 1 0 0 2.5h8.337a1.25 1.25 0 0 0 0-2.5zm-8.327 6.669a1.25 1.25 0 0 0-.02 2.5l8.179.061a1.25 1.25 0 1 0 .019-2.5z" clip-rule="evenodd"></path></svg>